<svg id="svg" version="1.1" xmlns="http://www.w3.org/2000/svg" xmlns:xlink="http://www.w3.org/1999/xlink" width="400" height="400" viewBox="0, 0, 400,400"><g id="svgg"><path id="path0" d="M0.000 200.200 L 0.000 266.400 66.600 266.400 L 133.200 266.400 133.200 200.200 L 133.200 134.000 66.600 134.000 L 0.000 134.000 0.000 200.200 " stroke="none" fill="#dc147c" fill-rule="evenodd"></path><path id="path1" d="M133.600 67.000 L 133.600 134.000 199.800 134.000 L 266.000 134.000 266.000 67.000 L 266.000 0.000 199.800 0.000 L 133.600 0.000 133.600 67.000 " stroke="none" fill="#f8d0cc" fill-rule="evenodd"></path><path id="path2" d="M133.395 66.800 C 133.395 103.650,133.442 118.725,133.500 100.300 C 133.557 81.875,133.557 51.725,133.500 33.300 C 133.442 14.875,133.395 29.950,133.395 66.800 M266.195 66.800 C 266.195 103.650,266.242 118.725,266.300 100.300 C 266.357 81.875,266.357 51.725,266.300 33.300 C 266.242 14.875,266.195 29.950,266.195 66.800 M133.600 200.400 L 133.600 266.800 199.800 266.800 L 266.000 266.800 266.000 200.400 L 266.000 134.000 199.800 134.000 L 133.600 134.000 133.600 200.400 M0.000 333.400 L 0.000 400.000 66.600 400.000 L 133.200 400.000 133.200 333.400 L 133.200 266.800 66.600 266.800 L 0.000 266.800 0.000 333.400 " stroke="none" fill="#ecc4b4" fill-rule="evenodd"></path><path id="path3" d="M266.400 200.400 L 266.400 266.800 333.200 266.800 L 400.000 266.800 400.000 200.400 L 400.000 134.000 333.200 134.000 L 266.400 134.000 266.400 200.400 " stroke="none" fill="#cc6c9c" fill-rule="evenodd"></path><path id="path4" d="M266.195 200.000 C 266.195 236.630,266.242 251.615,266.300 233.300 C 266.358 214.985,266.358 185.015,266.300 166.700 C 266.242 148.385,266.195 163.370,266.195 200.000 M133.200 333.400 L 133.200 400.000 199.600 400.000 L 266.000 400.000 266.000 333.400 L 266.000 266.800 199.600 266.800 L 133.200 266.800 133.200 333.400 " stroke="none" fill="#dca4c4" fill-rule="evenodd"></path><path id="path5" d="M33.068 133.900 C 51.366 133.958,81.426 133.958,99.868 133.900 C 118.311 133.842,103.340 133.795,66.600 133.795 C 29.860 133.795,14.771 133.842,33.068 133.900 M33.068 266.700 C 51.366 266.758,81.426 266.758,99.868 266.700 C 118.311 266.642,103.340 266.595,66.600 266.595 C 29.860 266.595,14.771 266.642,33.068 266.700 M266.400 333.400 L 266.400 400.000 333.200 400.000 L 400.000 400.000 400.000 333.400 L 400.000 266.800 333.200 266.800 L 266.400 266.800 266.400 333.400 " stroke="none" fill="#e45c8c" fill-rule="evenodd"></path><path id="path6" d="M266.400 66.800 L 266.400 133.600 333.200 133.600 L 400.000 133.600 400.000 66.800 L 400.000 0.000 333.200 0.000 L 266.400 0.000 266.400 66.800 " stroke="none" fill="#e4747c" fill-rule="evenodd"></path><path id="path7" d="M0.000 66.800 L 0.000 133.600 66.600 133.600 L 133.200 133.600 133.200 66.800 L 133.200 0.000 66.600 0.000 L 0.000 0.000 0.000 66.800 M299.700 133.900 C 318.125 133.957,348.275 133.957,366.700 133.900 C 385.125 133.842,370.050 133.795,333.200 133.795 C 296.350 133.795,281.275 133.842,299.700 133.900 " stroke="none" fill="#cc7494" fill-rule="evenodd"></path><path id="path8" d="M133.395 200.400 C 133.395 237.030,133.442 252.015,133.500 233.700 C 133.558 215.385,133.558 185.415,133.500 167.100 C 133.442 148.785,133.395 163.770,133.395 200.400 M266.195 333.200 C 266.195 370.050,266.242 385.125,266.300 366.700 C 266.357 348.275,266.357 318.125,266.300 299.700 C 266.242 281.275,266.195 296.350,266.195 333.200 " stroke="none" fill="#e480bc" fill-rule="evenodd"></path></g></svg>